<?xml version="1.0" encoding="UTF-8" standalone="no"?>
<!DOCTYPE svg PUBLIC "-//W3C//DTD SVG 1.1//EN" "http://www.w3.org/Graphics/SVG/1.1/DTD/svg11.dtd">
<svg width="100%" height="100%" viewBox="0 0 600 600" version="1.1" xmlns="http://www.w3.org/2000/svg" xmlns:xlink="http://www.w3.org/1999/xlink" xml:space="preserve" xmlns:serif="http://www.serif.com/" style="fill-rule:evenodd;clip-rule:evenodd;stroke-linecap:round;stroke-linejoin:round;stroke-miterlimit:1.5;">
    <g transform="matrix(1,0,0,1,-0.710511,-1)">
        <g transform="matrix(1.93891,0,0,1.96833,-321.121,-275.503)">
            <path d="M210,208C230.289,184.103 285.235,160.082 320.735,159C356.235,157.918 402.123,178.008 423,201.508C443.877,225.008 456.193,270.418 446,300C435.807,329.582 389.035,365.503 361.842,379C338.247,390.711 306.677,392.199 282.842,380.984C255.702,368.214 211.14,331.21 199,302.379C186.86,273.549 189.711,231.897 210,208Z" style="fill:rgb(255,113,65);"/>
        </g>
        <g transform="matrix(-1.93891,0,0,1.96833,922.542,-275.503)">
            <path d="M210,208C230.289,184.103 285.235,160.082 320.735,159C356.235,157.918 402.123,178.008 423,201.508C443.877,225.008 456.193,270.418 446,300C435.807,329.582 389.035,365.503 361.842,379C338.247,390.711 306.677,392.199 282.842,380.984C255.702,368.214 211.14,331.21 199,302.379C186.86,273.549 189.711,231.897 210,208Z" style="fill:rgb(255,113,65);"/>
        </g>
    </g>
    <g transform="matrix(-0.261801,4.68858,-5.08695,-0.284045,1469.89,-947.999)">
        <path d="M245,254C242,250.883 246.964,234 252,229C257.036,224 272.218,220.883 275.218,224C278.218,227.117 275.036,242.7 270,247.7C264.964,252.7 248,257.117 245,254Z" style="fill:rgb(255,224,0);stroke:rgb(255,224,0);stroke-width:1px;"/>
    </g>
    <g transform="matrix(0.261801,4.68858,5.08695,-0.284045,-869.889,-947.999)">
        <path d="M245,254C242,250.883 246.964,234 252,229C257.036,224 272.218,220.883 275.218,224C278.218,227.117 275.036,242.7 270,247.7C264.964,252.7 248,257.117 245,254Z" style="fill:rgb(255,224,0);stroke:rgb(255,224,0);stroke-width:1px;"/>
    </g>
    <g transform="matrix(1,0,0,1,-0.710511,0)">
        <g>
            <g transform="matrix(1.31502,0.0687418,-0.0989582,1.89305,-95.6204,-221.766)">
                <path d="M258,251C249.667,278 324.376,406.389 332,406C340.866,405.548 394.333,269.833 382,244C369.667,218.167 266.333,224 258,251Z" style="stroke:black;stroke-width:1.39px;"/>
            </g>
            <g transform="matrix(-1.31502,0.0687418,0.0989582,1.89305,697.041,-221.766)">
                <path d="M258,251C249.667,278 324.376,406.389 332,406C340.866,405.548 394.333,269.833 382,244C369.667,218.167 266.333,224 258,251Z" style="stroke:black;stroke-width:1.39px;"/>
            </g>
        </g>
    </g>
</svg>
